<mxfile host="app.diagrams.net" modified="2021-10-29T14:23:05.840Z" agent="5.0 (Windows NT 10.0; Win64; x64) AppleWebKit/537.36 (KHTML, like Gecko) Chrome/95.0.4638.54 Safari/537.36" etag="sJG00viMcdg78h_mR3SM" version="15.6.2" type="github">
  <diagram id="DMwDkD7tZcDRXJ1GRR6g" name="Page-1">
    <mxGraphModel dx="1278" dy="547" grid="1" gridSize="10" guides="1" tooltips="1" connect="1" arrows="1" fold="1" page="1" pageScale="1" pageWidth="827" pageHeight="1169" math="0" shadow="0">
      <root>
        <mxCell id="0" />
        <mxCell id="1" parent="0" />
        <mxCell id="f2AHCFPDsf_nclH0APm9-1" value="Поставщик" style="rounded=0;whiteSpace=wrap;html=1;" vertex="1" parent="1">
          <mxGeometry x="620" y="180" width="120" height="60" as="geometry" />
        </mxCell>
        <mxCell id="f2AHCFPDsf_nclH0APm9-2" value="Поставка" style="rounded=0;whiteSpace=wrap;html=1;" vertex="1" parent="1">
          <mxGeometry x="294" y="30" width="120" height="60" as="geometry" />
        </mxCell>
        <mxCell id="f2AHCFPDsf_nclH0APm9-3" value="Склад" style="rounded=0;whiteSpace=wrap;html=1;" vertex="1" parent="1">
          <mxGeometry x="130" y="70" width="120" height="60" as="geometry" />
        </mxCell>
        <mxCell id="f2AHCFPDsf_nclH0APm9-4" value="Товар" style="rounded=0;whiteSpace=wrap;html=1;" vertex="1" parent="1">
          <mxGeometry x="130" y="220" width="120" height="60" as="geometry" />
        </mxCell>
        <mxCell id="f2AHCFPDsf_nclH0APm9-5" value="Магазин" style="rounded=0;whiteSpace=wrap;html=1;" vertex="1" parent="1">
          <mxGeometry x="310" y="140" width="120" height="60" as="geometry" />
        </mxCell>
        <mxCell id="f2AHCFPDsf_nclH0APm9-6" value="Сотрудник" style="rounded=0;whiteSpace=wrap;html=1;" vertex="1" parent="1">
          <mxGeometry x="350" y="250" width="120" height="60" as="geometry" />
        </mxCell>
        <mxCell id="f2AHCFPDsf_nclH0APm9-21" value="" style="group" vertex="1" connectable="0" parent="1">
          <mxGeometry x="60" y="370" width="500" height="310" as="geometry" />
        </mxCell>
        <mxCell id="f2AHCFPDsf_nclH0APm9-7" value="Заказ" style="rounded=0;whiteSpace=wrap;html=1;" vertex="1" parent="f2AHCFPDsf_nclH0APm9-21">
          <mxGeometry x="190" y="130" width="120" height="60" as="geometry" />
        </mxCell>
        <mxCell id="f2AHCFPDsf_nclH0APm9-9" value="Артикул" style="ellipse;whiteSpace=wrap;html=1;" vertex="1" parent="f2AHCFPDsf_nclH0APm9-21">
          <mxGeometry y="120" width="120" height="80" as="geometry" />
        </mxCell>
        <mxCell id="f2AHCFPDsf_nclH0APm9-11" value="Дата доставки" style="ellipse;whiteSpace=wrap;html=1;" vertex="1" parent="f2AHCFPDsf_nclH0APm9-21">
          <mxGeometry x="270" width="120" height="80" as="geometry" />
        </mxCell>
        <mxCell id="f2AHCFPDsf_nclH0APm9-12" value="Номер магазина" style="ellipse;whiteSpace=wrap;html=1;" vertex="1" parent="f2AHCFPDsf_nclH0APm9-21">
          <mxGeometry x="270" y="230" width="120" height="80" as="geometry" />
        </mxCell>
        <mxCell id="f2AHCFPDsf_nclH0APm9-13" value="Количество" style="ellipse;whiteSpace=wrap;html=1;" vertex="1" parent="f2AHCFPDsf_nclH0APm9-21">
          <mxGeometry x="380" y="120" width="120" height="80" as="geometry" />
        </mxCell>
        <mxCell id="f2AHCFPDsf_nclH0APm9-14" value="Номер заказа" style="ellipse;whiteSpace=wrap;html=1;" vertex="1" parent="f2AHCFPDsf_nclH0APm9-21">
          <mxGeometry x="110" width="120" height="80" as="geometry" />
        </mxCell>
        <mxCell id="f2AHCFPDsf_nclH0APm9-15" value="" style="endArrow=none;html=1;rounded=0;exitX=1;exitY=0.5;exitDx=0;exitDy=0;entryX=0;entryY=0.5;entryDx=0;entryDy=0;" edge="1" parent="f2AHCFPDsf_nclH0APm9-21" source="f2AHCFPDsf_nclH0APm9-9" target="f2AHCFPDsf_nclH0APm9-7">
          <mxGeometry width="50" height="50" relative="1" as="geometry">
            <mxPoint x="370" y="100" as="sourcePoint" />
            <mxPoint x="420" y="50" as="targetPoint" />
          </mxGeometry>
        </mxCell>
        <mxCell id="f2AHCFPDsf_nclH0APm9-16" value="" style="endArrow=none;html=1;rounded=0;exitX=0.5;exitY=1;exitDx=0;exitDy=0;entryX=0.25;entryY=0;entryDx=0;entryDy=0;" edge="1" parent="f2AHCFPDsf_nclH0APm9-21" source="f2AHCFPDsf_nclH0APm9-14" target="f2AHCFPDsf_nclH0APm9-7">
          <mxGeometry width="50" height="50" relative="1" as="geometry">
            <mxPoint x="370" y="100" as="sourcePoint" />
            <mxPoint x="420" y="50" as="targetPoint" />
          </mxGeometry>
        </mxCell>
        <mxCell id="f2AHCFPDsf_nclH0APm9-17" value="" style="endArrow=none;html=1;rounded=0;exitX=0.75;exitY=0;exitDx=0;exitDy=0;entryX=0.5;entryY=1;entryDx=0;entryDy=0;" edge="1" parent="f2AHCFPDsf_nclH0APm9-21" source="f2AHCFPDsf_nclH0APm9-7" target="f2AHCFPDsf_nclH0APm9-11">
          <mxGeometry width="50" height="50" relative="1" as="geometry">
            <mxPoint x="370" y="100" as="sourcePoint" />
            <mxPoint x="340" y="120" as="targetPoint" />
          </mxGeometry>
        </mxCell>
        <mxCell id="f2AHCFPDsf_nclH0APm9-18" value="" style="endArrow=none;html=1;rounded=0;exitX=1;exitY=0.5;exitDx=0;exitDy=0;entryX=0;entryY=0.5;entryDx=0;entryDy=0;" edge="1" parent="f2AHCFPDsf_nclH0APm9-21" source="f2AHCFPDsf_nclH0APm9-7" target="f2AHCFPDsf_nclH0APm9-13">
          <mxGeometry width="50" height="50" relative="1" as="geometry">
            <mxPoint x="370" y="100" as="sourcePoint" />
            <mxPoint x="420" y="50" as="targetPoint" />
          </mxGeometry>
        </mxCell>
        <mxCell id="f2AHCFPDsf_nclH0APm9-19" value="" style="endArrow=none;html=1;rounded=0;exitX=0.5;exitY=0;exitDx=0;exitDy=0;entryX=0.75;entryY=1;entryDx=0;entryDy=0;" edge="1" parent="f2AHCFPDsf_nclH0APm9-21" source="f2AHCFPDsf_nclH0APm9-12" target="f2AHCFPDsf_nclH0APm9-7">
          <mxGeometry width="50" height="50" relative="1" as="geometry">
            <mxPoint x="370" y="100" as="sourcePoint" />
            <mxPoint x="420" y="50" as="targetPoint" />
          </mxGeometry>
        </mxCell>
        <mxCell id="f2AHCFPDsf_nclH0APm9-22" value="" style="ellipse;whiteSpace=wrap;html=1;" vertex="1" parent="1">
          <mxGeometry x="480" y="60" width="120" height="80" as="geometry" />
        </mxCell>
        <mxCell id="f2AHCFPDsf_nclH0APm9-23" value="" style="ellipse;whiteSpace=wrap;html=1;" vertex="1" parent="1">
          <mxGeometry x="800" y="200" width="120" height="80" as="geometry" />
        </mxCell>
        <mxCell id="f2AHCFPDsf_nclH0APm9-24" value="Код" style="ellipse;whiteSpace=wrap;html=1;" vertex="1" parent="1">
          <mxGeometry x="800" y="200" width="120" height="80" as="geometry" />
        </mxCell>
      </root>
    </mxGraphModel>
  </diagram>
</mxfile>
